<svg width="160" height="36" viewBox="0 0 160 36" fill="none" xmlns="http://www.w3.org/2000/svg">
<path d="M110.13 7.25227C105.88 7.25227 103.804 9.84191 103.804 13.1888V22.5014C103.804 24.5796 102.396 26.4215 100.288 26.4215H89.301C89.2803 26.4214 89.2599 26.4254 89.2408 26.4332C89.2217 26.441 89.2043 26.4524 89.1897 26.4669C89.1751 26.4813 89.1635 26.4985 89.1555 26.5174C89.1476 26.5363 89.1434 26.5565 89.1434 26.577V28.6293C89.1436 28.6705 89.1603 28.7101 89.1898 28.7391C89.2194 28.7682 89.2594 28.7845 89.301 28.7844H102.254C106.504 28.7844 108.586 26.5616 108.586 23.2213V13.1888C108.586 11.1043 110.12 9.6088 112.229 9.6088H123.278C123.32 9.6089 123.36 9.5926 123.389 9.56347C123.419 9.53434 123.436 9.49477 123.436 9.45346V7.40761C123.436 7.38714 123.431 7.36688 123.424 7.348C123.416 7.32911 123.404 7.31197 123.389 7.29754C123.375 7.28312 123.357 7.27169 123.338 7.26393C123.319 7.25616 123.299 7.2522 123.278 7.25227H110.13ZM84.3373 7.15268H58.7949C58.7533 7.15268 58.7134 7.16903 58.684 7.19815C58.6545 7.22726 58.6379 7.26677 58.6377 7.30802V9.54425C58.641 9.63118 58.7135 9.69977 58.8016 9.69977H82.7497C83.9883 9.69977 85.853 10.6975 85.853 13.0909C85.853 15.4843 83.7871 16.4886 82.7495 16.4886H63.9913C60.9339 16.4886 58.6311 19.204 58.6311 22.5649V28.7127C58.6301 28.7334 58.6336 28.754 58.6412 28.7732C58.6487 28.7925 58.6603 28.81 58.6751 28.8246C58.6899 28.8392 58.7076 28.8507 58.7271 28.8582C58.7467 28.8657 58.7675 28.8691 58.7884 28.8682H63.2697C63.3114 28.8682 63.3513 28.8519 63.3808 28.8227C63.4103 28.7935 63.4269 28.754 63.427 28.7127V22.5585C63.427 20.4798 65.012 18.8904 66.7508 18.8904L84.3242 19.0227C88.5693 19.0227 90.6425 16.4325 90.6425 13.0909C90.6425 9.74929 88.5691 7.15268 84.3244 7.15268H84.3373ZM17.4038 0V33.5861L25.0823 36V7.82724C25.0823 6.526 25.6741 5.62806 26.6339 5.93379C27.8895 6.27859 28.1328 7.49546 28.1328 8.80954V20.0594C32.9187 22.3496 36.679 20.0594 36.679 14.0213C36.6857 7.82724 34.4832 5.08152 28.0013 2.88877C24.5289 1.72097 20.9903 0.756392 17.4038 0V0Z" fill="#EEF2FA"/>
<path d="M26.7609 31.0165L39.1253 26.6291C40.5269 26.1314 40.7441 25.4176 39.6057 25.051C38.0784 24.6994 36.4822 24.7811 34.9995 25.2866L26.7609 28.1679V23.5841L27.2345 23.4269C29.0975 22.8257 31.0183 22.4175 32.9661 22.2088C36.57 21.8428 40.2109 22.2746 43.6262 23.4728C47.2521 24.6187 47.6601 26.2952 46.7389 27.4543C45.8176 28.6134 43.5606 29.4187 43.5606 29.4187L26.7609 35.4434V31.0165ZM3.51598 30.6486C-0.184059 29.607 -0.798483 27.439 0.901261 26.1813C2.21104 25.3299 3.62602 24.6496 5.11123 24.1571L16.0612 20.2267V24.668L8.21645 27.4979C6.82392 27.9957 6.61473 28.703 7.73926 29.0764C9.2564 29.4284 10.8431 29.3467 12.3153 28.8406L16.0939 27.4651V31.4805L15.3421 31.5984C11.4003 32.2385 7.36045 31.9124 3.57498 30.6486" fill="#EEF2FA"/>
<path fill-rule="evenodd" clip-rule="evenodd" d="M128.209 7.25226H158.843C158.989 7.25226 159.062 7.3082 159.062 7.42007V9.50022C159.062 9.60127 158.989 9.64694 158.843 9.63759C141.689 9.6363 133.041 9.6363 132.899 9.63759C132.757 9.63887 132.668 9.68655 132.633 9.78064V14.8064C132.633 15.1815 132.957 16.3906 134.199 16.3906H153.675C156.053 16.3906 160 18.0341 160 22.579C160 27.1237 155.862 28.8104 154.177 28.8104H128.209C128.082 28.8104 128.021 28.7901 128.021 28.6368C128.021 28.4834 128.013 26.6784 128.021 26.5819C128.029 26.4855 128.062 26.4324 128.209 26.4315C128.357 26.4304 149.777 26.4315 151.124 26.4315C152.47 26.4315 155.202 25.4151 155.202 22.579C155.202 19.7427 152.39 18.8904 151.674 18.8904H131.102C130.687 18.8904 129.683 18.7417 128.909 17.8597C128.136 16.9775 128.021 16.4768 128.021 15.2913V7.42007C128.021 7.3082 128.084 7.25226 128.209 7.25226H128.209Z" fill="#EEF2FA"/>
</svg>
