<svg width="414" height="145" viewBox="0 0 414 145" fill="none" xmlns="http://www.w3.org/2000/svg">
<path d="M42.1616 60H41.1616V61H42.1616V60ZM42.1616 0.479999V-0.520001H41.1616V0.479999H42.1616ZM60.8016 14.56V13.56L59.8016 13.56V14.56L60.8016 14.56ZM60.8016 45.68H59.8016V46.68H60.8016V45.68ZM42.1616 61H81.6816V59H42.1616V61ZM81.6816 61C99.2186 61 109.985 56.9296 116.369 51.0559C122.767 45.1688 124.602 37.6211 124.602 31.04H122.602C122.602 37.2589 120.876 44.1912 115.014 49.5841C109.138 54.9904 98.9445 59 81.6816 59V61ZM124.602 31.04V28.64H122.602V31.04H124.602ZM124.602 28.64C124.602 21.7709 122.662 14.4119 116.187 8.79463C109.74 3.20221 98.9608 -0.520001 81.6016 -0.520001V1.48C98.7223 1.48 108.943 5.15778 114.876 10.3054C120.781 15.4281 122.602 22.1491 122.602 28.64H124.602ZM81.6016 -0.520001L42.1616 -0.520001V1.48L81.6016 1.48V-0.520001ZM41.1616 0.479999L41.1616 60H43.1616L43.1616 0.479999H41.1616ZM60.8016 15.56H80.1616V13.56H60.8016V15.56ZM80.1616 15.56C90.7679 15.56 96.4478 17.84 99.4816 20.6533C102.49 23.4424 103.082 26.9298 103.082 29.84H105.082C105.082 26.6702 104.434 22.5176 100.842 19.1867C97.2754 15.8799 90.9953 13.56 80.1616 13.56V15.56ZM103.082 29.84V30.32H105.082V29.84H103.082ZM103.082 30.32C103.082 33.2113 102.419 36.7275 99.3636 39.5449C96.2858 42.3831 90.6005 44.68 80.1616 44.68V46.68C90.8426 46.68 97.1174 44.3369 100.719 41.0151C104.344 37.6725 105.082 33.5087 105.082 30.32H103.082ZM80.1616 44.68L60.8016 44.68V46.68L80.1616 46.68V44.68ZM61.8016 45.68L61.8016 14.56L59.8016 14.56L59.8016 45.68H61.8016ZM213.814 0.479999H214.814V-0.520001H213.814V0.479999ZM195.174 0.479999V-0.520001H194.174V0.479999H195.174ZM155.974 0.479999H156.974V-0.520001H155.974V0.479999ZM137.254 0.479999V-0.520001H136.254V0.479999H137.254ZM177.254 61.88C192.737 61.88 202.184 56.7062 207.736 49.9552C213.257 43.2434 214.814 35.1126 214.814 29.36H212.814C212.814 34.8074 211.331 42.4366 206.192 48.6848C201.085 54.8938 192.251 59.88 177.254 59.88V61.88ZM214.814 29.36V0.479999H212.814V29.36H214.814ZM213.814 -0.520001L195.174 -0.520001V1.48L213.814 1.48V-0.520001ZM194.174 0.479999V28.24H196.174V0.479999H194.174ZM194.174 28.24C194.174 31.9488 193.321 35.9766 190.657 39.067C188.017 42.1287 183.45 44.44 175.654 44.44V46.44C183.858 46.44 189.051 43.9913 192.171 40.373C195.267 36.7834 196.174 32.2112 196.174 28.24H194.174ZM175.654 44.44C167.734 44.44 163.128 42.1258 160.48 39.0657C157.808 35.9777 156.974 31.9526 156.974 28.24H154.974C154.974 32.2074 155.86 36.7823 158.968 40.3743C162.1 43.9942 167.334 46.44 175.654 46.44V44.44ZM156.974 28.24V0.479999H154.974V28.24H156.974ZM155.974 -0.520001L137.254 -0.520001V1.48L155.974 1.48V-0.520001ZM136.254 0.479999V29.36H138.254V0.479999H136.254ZM136.254 29.36C136.254 35.0882 137.58 43.2281 143.069 49.9524C148.591 56.7163 158.187 61.88 174.374 61.88V59.88C158.641 59.88 149.677 54.8837 144.619 48.6876C139.528 42.4519 138.254 34.8318 138.254 29.36H136.254ZM174.374 61.88H177.254V59.88H174.374V61.88ZM272.248 35.68V36.68H273.889L273.136 35.2214L272.248 35.68ZM249.688 35.68L248.791 35.2366L248.078 36.68L249.688 36.68V35.68ZM260.728 13.36L261.616 12.9014L260.709 11.1429L259.831 12.9166L260.728 13.36ZM284.728 60L283.839 60.4576L284.118 61H284.728V60ZM304.808 60V61H306.477L305.69 59.5283L304.808 60ZM272.968 0.479999L273.85 0.00830364L273.567 -0.520001H272.968V0.479999ZM248.808 0.479999V-0.520001H248.193L247.915 0.0289507L248.808 0.479999ZM218.728 60L217.835 59.549L217.102 61H218.728V60ZM237.688 60V61H238.31L238.585 60.4419L237.688 60ZM243.048 49.12V48.12H242.426L242.151 48.6781L243.048 49.12ZM279.128 49.12L280.017 48.6624L279.738 48.12H279.128V49.12ZM272.248 34.68H249.688V36.68H272.248V34.68ZM250.584 36.1234L261.624 13.8034L259.831 12.9166L248.791 35.2366L250.584 36.1234ZM259.839 13.8186L271.359 36.1386L273.136 35.2214L261.616 12.9014L259.839 13.8186ZM284.728 61H304.808V59H284.728V61ZM305.69 59.5283L273.85 0.00830364L272.086 0.951694L303.926 60.4717L305.69 59.5283ZM272.968 -0.520001L248.808 -0.520001V1.48L272.968 1.48V-0.520001ZM247.915 0.0289507L217.835 59.549L219.62 60.451L249.7 0.931046L247.915 0.0289507ZM218.728 61H237.688V59H218.728V61ZM238.585 60.4419L243.945 49.5619L242.151 48.6781L236.791 59.5581L238.585 60.4419ZM243.048 50.12L279.128 50.12V48.12L243.048 48.12V50.12ZM278.239 49.5776L283.839 60.4576L285.617 59.5424L280.017 48.6624L278.239 49.5776ZM316.083 0.479999V-0.520001H315.083V0.479999H316.083ZM316.083 60H315.083V61H316.083V60ZM376.083 60V61H377.083V60H376.083ZM376.083 45.2H377.083V44.2H376.083V45.2ZM334.723 45.2H333.723V46.2H334.723V45.2ZM334.723 0.479999H335.723V-0.520001H334.723V0.479999ZM315.083 0.479999V60H317.083V0.479999H315.083ZM316.083 61L376.083 61V59L316.083 59V61ZM377.083 60V45.2H375.083V60H377.083ZM376.083 44.2L334.723 44.2V46.2L376.083 46.2V44.2ZM335.723 45.2V0.479999H333.723V45.2H335.723ZM334.723 -0.520001L316.083 -0.520001V1.48L334.723 1.48V-0.520001ZM44.3503 105.32L44.3682 104.32L44.3663 104.32L44.3503 105.32ZM34.3503 105.16L34.3306 106.16L34.3343 106.16L34.3503 105.16ZM54.5103 102.04L53.5259 102.216L53.6731 103.04H54.5103V102.04ZM73.8703 102.04V103.04H74.8703V102.04H73.8703ZM30.4303 118.76L30.4016 119.76L30.4069 119.76L30.4303 118.76ZM40.6703 119L40.6994 118L40.6937 118L40.6703 119ZM20.0303 121.88L21.0281 121.813L20.9659 120.88H20.0303V121.88ZM0.590313 121.88V120.88H-0.409687V121.88H0.590313ZM40.9103 145.04C55.9408 145.04 64.9297 142.516 70.1719 138.569C75.492 134.563 76.7903 129.222 76.7903 124.12H74.7903C74.7903 128.858 73.6086 133.477 68.9688 136.971C64.2509 140.524 55.7998 143.04 40.9103 143.04V145.04ZM76.7903 124.12V123H74.7903V124.12H76.7903ZM76.7903 123C76.7903 119.912 76.2004 117.178 74.9044 114.818C73.6058 112.452 71.6326 110.525 68.9663 109.002C63.6778 105.981 55.6041 104.521 44.3682 104.32L44.3325 106.32C55.4965 106.519 63.1429 107.979 67.9744 110.738C70.368 112.105 72.0548 113.783 73.1512 115.78C74.2502 117.782 74.7903 120.168 74.7903 123H76.7903ZM44.3663 104.32L34.3663 104.16L34.3343 106.16L44.3343 106.32L44.3663 104.32ZM34.37 104.16C28.3052 104.04 25.056 103.398 23.3462 102.57C22.5187 102.169 22.1104 101.752 21.8935 101.381C21.6745 101.007 21.5903 100.577 21.5903 100.04H19.5903C19.5903 100.783 19.7062 101.603 20.1671 102.391C20.6303 103.183 21.382 103.841 22.4744 104.37C24.6046 105.402 28.2354 106.04 34.3306 106.16L34.37 104.16ZM21.5903 100.04C21.5903 99.4576 21.6531 99.0159 21.8586 98.6334C22.0554 98.2674 22.4475 97.8389 23.3327 97.4264C25.1741 96.5683 28.8345 95.92 36.0303 95.92V93.92C28.8261 93.92 24.7665 94.5517 22.4879 95.6136C21.3131 96.1611 20.5452 96.8526 20.097 97.6866C19.6576 98.5041 19.5903 99.3424 19.5903 100.04H21.5903ZM36.0303 95.92H37.3103V93.92H36.0303V95.92ZM37.3103 95.92C45.0409 95.92 49.0064 97.1356 51.064 98.4776C52.076 99.1376 52.6342 99.8327 52.9657 100.454C53.3023 101.084 53.4307 101.683 53.5259 102.216L55.4947 101.864C55.3899 101.277 55.2183 100.426 54.7299 99.5115C54.2365 98.5873 53.4446 97.6424 52.1566 96.8024C49.6143 95.1444 45.1797 93.92 37.3103 93.92V95.92ZM54.5103 103.04H73.8703V101.04H54.5103V103.04ZM74.8703 102.04V101.24H72.8703V102.04H74.8703ZM74.8703 101.24C74.8703 96.4889 73.1533 91.4572 67.7234 87.6605C62.3587 83.9094 53.476 81.44 39.3103 81.44V83.44C53.3046 83.44 61.7019 85.8906 66.5773 89.2995C71.3873 92.6628 72.8703 97.0311 72.8703 101.24H74.8703ZM39.3103 81.44H33.7903V83.44H39.3103V81.44ZM33.7903 81.44C20.1529 81.44 11.7961 83.7663 6.83163 87.3816C1.79332 91.0507 0.390312 95.9378 0.390312 100.6H2.39031C2.39031 96.3822 3.6273 92.1893 8.009 88.9984C12.4645 85.7537 20.3077 83.44 33.7903 83.44V81.44ZM0.390312 100.6V101.32H2.39031V100.6H0.390312ZM0.390312 101.32C0.390312 106.245 2.21726 110.771 6.99882 114.101C11.7123 117.383 19.2025 119.437 30.4016 119.76L30.4591 117.76C19.4182 117.443 12.3883 115.417 8.14181 112.459C3.96337 109.549 2.39031 105.675 2.39031 101.32H0.390312ZM30.4069 119.76L40.6469 120L40.6937 118L30.4537 117.76L30.4069 119.76ZM40.6413 120C47.5261 120.2 51.2343 120.843 53.2065 121.766C54.1572 122.211 54.634 122.689 54.8951 123.156C55.1638 123.636 55.2703 124.22 55.2703 125H57.2703C57.2703 124.06 57.1468 123.084 56.6405 122.179C56.1266 121.261 55.2834 120.529 54.0541 119.954C51.6663 118.837 47.5745 118.2 40.6994 118L40.6413 120ZM55.2703 125C55.2703 125.713 55.1711 126.318 54.8749 126.854C54.584 127.381 54.0468 127.943 52.9891 128.463C50.8116 129.533 46.6547 130.32 38.8303 130.32V132.32C46.6859 132.32 51.2491 131.547 53.8715 130.257C55.2138 129.597 56.0966 128.779 56.6257 127.821C57.1495 126.872 57.2703 125.887 57.2703 125H55.2703ZM38.8303 130.32H37.7103V132.32H38.8303V130.32ZM37.7103 130.32C30.1285 130.32 26.0295 128.874 23.812 127.159C21.6441 125.482 21.1365 123.44 21.0281 121.813L19.0325 121.947C19.1641 123.92 19.8165 126.597 22.5886 128.741C25.3111 130.846 29.9322 132.32 37.7103 132.32V130.32ZM20.0303 120.88H0.590313V122.88H20.0303V120.88ZM-0.409687 121.88V122.76H1.59031V121.88H-0.409687ZM-0.409687 122.76C-0.409687 126.832 0.529625 132.48 5.61964 137.082C10.6818 141.659 19.6735 145.04 35.3903 145.04V143.04C19.9071 143.04 11.4988 139.701 6.96098 135.598C2.451 131.52 1.59031 126.528 1.59031 122.76H-0.409687ZM35.3903 145.04H40.9103V143.04H35.3903V145.04ZM90.1459 83.48V82.48H89.1459V83.48H90.1459ZM90.1459 143H89.1459V144H90.1459V143ZM153.666 143V144H154.666V143H153.666ZM153.666 129.16H154.666V128.16H153.666V129.16ZM108.546 129.16H107.546V130.16H108.546V129.16ZM108.546 119.4V118.4H107.546V119.4H108.546ZM151.826 119.4V120.4H152.826V119.4H151.826ZM151.826 105.8H152.826V104.8H151.826V105.8ZM108.546 105.8H107.546V106.8H108.546V105.8ZM108.546 97V96H107.546V97H108.546ZM152.866 97V98H153.866V97H152.866ZM152.866 83.48H153.866V82.48H152.866V83.48ZM89.1459 83.48V143H91.1459V83.48H89.1459ZM90.1459 144H153.666V142H90.1459V144ZM154.666 143V129.16H152.666V143H154.666ZM153.666 128.16H108.546V130.16H153.666V128.16ZM109.546 129.16V119.4H107.546V129.16H109.546ZM108.546 120.4H151.826V118.4H108.546V120.4ZM152.826 119.4V105.8H150.826V119.4H152.826ZM151.826 104.8H108.546V106.8H151.826V104.8ZM109.546 105.8V97H107.546V105.8H109.546ZM108.546 98H152.866V96H108.546V98ZM153.866 97V83.48H151.866V97H153.866ZM152.866 82.48L90.1459 82.48V84.48L152.866 84.48V82.48ZM169.396 83.48V82.48H168.396V83.48H169.396ZM169.396 143H168.396V144H169.396V143ZM187.796 143V144H188.796V143H187.796ZM187.796 103.56L188.494 102.844L186.796 101.186V103.56H187.796ZM228.196 143L227.497 143.716L227.789 144H228.196V143ZM246.596 143V144H247.596V143H246.596ZM246.596 83.48H247.596V82.48H246.596V83.48ZM228.196 83.48V82.48H227.196V83.48H228.196ZM228.196 120.92L227.494 121.632L229.196 123.309V120.92H228.196ZM190.196 83.48L190.898 82.7677L190.606 82.48H190.196V83.48ZM168.396 83.48V143H170.396V83.48H168.396ZM169.396 144H187.796V142H169.396V144ZM188.796 143V103.56H186.796V143H188.796ZM187.097 104.276L227.497 143.716L228.895 142.284L188.494 102.844L187.097 104.276ZM228.196 144H246.596V142H228.196V144ZM247.596 143V83.48H245.596V143H247.596ZM246.596 82.48H228.196V84.48H246.596V82.48ZM227.196 83.48V120.92H229.196V83.48H227.196ZM228.898 120.208L190.898 82.7677L189.494 84.1923L227.494 121.632L228.898 120.208ZM190.196 82.48L169.396 82.48V84.48L190.196 84.48V82.48ZM304.444 105.32L304.462 104.32L304.46 104.32L304.444 105.32ZM294.444 105.16L294.424 106.16L294.428 106.16L294.444 105.16ZM314.604 102.04L313.62 102.216L313.767 103.04H314.604V102.04ZM333.964 102.04V103.04H334.964V102.04H333.964ZM290.524 118.76L290.495 119.76L290.501 119.76L290.524 118.76ZM300.764 119L300.793 118L300.788 118L300.764 119ZM280.124 121.88L281.122 121.813L281.06 120.88H280.124V121.88ZM260.684 121.88V120.88H259.684V121.88H260.684ZM301.004 145.04C316.035 145.04 325.023 142.516 330.266 138.569C335.586 134.563 336.884 129.222 336.884 124.12H334.884C334.884 128.858 333.702 133.477 329.063 136.971C324.345 140.524 315.894 143.04 301.004 143.04V145.04ZM336.884 124.12V123H334.884V124.12H336.884ZM336.884 123C336.884 119.912 336.294 117.178 334.998 114.818C333.7 112.452 331.726 110.525 329.06 109.002C323.772 105.981 315.698 104.521 304.462 104.32L304.426 106.32C315.59 106.519 323.237 107.979 328.068 110.738C330.462 112.105 332.149 113.783 333.245 115.78C334.344 117.782 334.884 120.168 334.884 123H336.884ZM304.46 104.32L294.46 104.16L294.428 106.16L304.428 106.32L304.46 104.32ZM294.464 104.16C288.399 104.04 285.15 103.398 283.44 102.57C282.612 102.169 282.204 101.752 281.987 101.381C281.768 101.007 281.684 100.577 281.684 100.04H279.684C279.684 100.783 279.8 101.603 280.261 102.391C280.724 103.183 281.476 103.841 282.568 104.37C284.698 105.402 288.329 106.04 294.424 106.16L294.464 104.16ZM281.684 100.04C281.684 99.4576 281.747 99.0159 281.952 98.6334C282.149 98.2674 282.541 97.8389 283.426 97.4264C285.268 96.5683 288.928 95.92 296.124 95.92V93.92C288.92 93.92 284.86 94.5517 282.582 95.6136C281.407 96.1611 280.639 96.8526 280.191 97.6866C279.751 98.5041 279.684 99.3424 279.684 100.04H281.684ZM296.124 95.92H297.404V93.92H296.124V95.92ZM297.404 95.92C305.135 95.92 309.1 97.1356 311.158 98.4776C312.17 99.1376 312.728 99.8327 313.059 100.454C313.396 101.084 313.524 101.683 313.62 102.216L315.589 101.864C315.484 101.277 315.312 100.426 314.824 99.5115C314.33 98.5873 313.538 97.6424 312.25 96.8024C309.708 95.1444 305.273 93.92 297.404 93.92V95.92ZM314.604 103.04H333.964V101.04H314.604V103.04ZM334.964 102.04V101.24H332.964V102.04H334.964ZM334.964 101.24C334.964 96.4889 333.247 91.4572 327.817 87.6605C322.452 83.9094 313.57 81.44 299.404 81.44V83.44C313.398 83.44 321.796 85.8906 326.671 89.2995C331.481 92.6628 332.964 97.0311 332.964 101.24H334.964ZM299.404 81.44H293.884V83.44H299.404V81.44ZM293.884 81.44C280.247 81.44 271.89 83.7663 266.925 87.3816C261.887 91.0507 260.484 95.9378 260.484 100.6H262.484C262.484 96.3822 263.721 92.1893 268.103 88.9984C272.558 85.7537 280.401 83.44 293.884 83.44V81.44ZM260.484 100.6V101.32H262.484V100.6H260.484ZM260.484 101.32C260.484 106.245 262.311 110.771 267.093 114.101C271.806 117.383 279.296 119.437 290.495 119.76L290.553 117.76C279.512 117.443 272.482 115.417 268.236 112.459C264.057 109.549 262.484 105.675 262.484 101.32H260.484ZM290.501 119.76L300.741 120L300.788 118L290.547 117.76L290.501 119.76ZM300.735 120C307.62 120.2 311.328 120.843 313.3 121.766C314.251 122.211 314.728 122.689 314.989 123.156C315.258 123.636 315.364 124.22 315.364 125H317.364C317.364 124.06 317.241 123.084 316.734 122.179C316.22 121.261 315.377 120.529 314.148 119.954C311.76 118.837 307.668 118.2 300.793 118L300.735 120ZM315.364 125C315.364 125.713 315.265 126.318 314.969 126.854C314.678 127.381 314.141 127.943 313.083 128.463C310.905 129.533 306.748 130.32 298.924 130.32V132.32C306.78 132.32 311.343 131.547 313.965 130.257C315.308 129.597 316.19 128.779 316.719 127.821C317.243 126.872 317.364 125.887 317.364 125H315.364ZM298.924 130.32H297.804V132.32H298.924V130.32ZM297.804 130.32C290.222 130.32 286.123 128.874 283.906 127.159C281.738 125.482 281.23 123.44 281.122 121.813L279.126 121.947C279.258 123.92 279.91 126.597 282.682 128.741C285.405 130.846 290.026 132.32 297.804 132.32V130.32ZM280.124 120.88H260.684V122.88H280.124V120.88ZM259.684 121.88V122.76H261.684V121.88H259.684ZM259.684 122.76C259.684 126.832 260.623 132.48 265.713 137.082C270.776 141.659 279.767 145.04 295.484 145.04V143.04C280.001 143.04 271.593 139.701 267.055 135.598C262.545 131.52 261.684 126.528 261.684 122.76H259.684ZM295.484 145.04H301.004V143.04H295.484V145.04ZM350.24 83.48V82.48H349.24V83.48H350.24ZM350.24 143H349.24V144H350.24V143ZM413.76 143V144H414.76V143H413.76ZM413.76 129.16H414.76V128.16H413.76V129.16ZM368.64 129.16H367.64V130.16H368.64V129.16ZM368.64 119.4V118.4H367.64V119.4H368.64ZM411.92 119.4V120.4H412.92V119.4H411.92ZM411.92 105.8H412.92V104.8H411.92V105.8ZM368.64 105.8H367.64V106.8H368.64V105.8ZM368.64 97V96H367.64V97H368.64ZM412.96 97V98H413.96V97H412.96ZM412.96 83.48H413.96V82.48H412.96V83.48ZM349.24 83.48V143H351.24V83.48H349.24ZM350.24 144L413.76 144V142L350.24 142V144ZM414.76 143V129.16H412.76V143H414.76ZM413.76 128.16L368.64 128.16V130.16L413.76 130.16V128.16ZM369.64 129.16V119.4H367.64V129.16H369.64ZM368.64 120.4L411.92 120.4V118.4L368.64 118.4V120.4ZM412.92 119.4V105.8H410.92V119.4H412.92ZM411.92 104.8H368.64V106.8H411.92V104.8ZM369.64 105.8V97H367.64V105.8H369.64ZM368.64 98H412.96V96H368.64V98ZM413.96 97V83.48H411.96V97H413.96ZM412.96 82.48L350.24 82.48V84.48L412.96 84.48V82.48Z" fill="#21262E"/>
</svg>
